HIERARCHY
ROOT Hips
{
	OFFSET 0.00000 0.00000 0.00000
	CHANNELS 6 Xposition Yposition Zposition Zrotation Yrotation Xrotation 
	JOINT LHipJoint
	{
		OFFSET 0 0 0
		CHANNELS 3 Zrotation Yrotation Xrotation
		JOINT LeftHip
		{
			OFFSET 1.64549 -1.70879 0.84566
			CHANNELS 3 Zrotation Yrotation Xrotation
			JOINT LeftKnee
			{
				OFFSET 2.24963 -6.18082 0.00000
				CHANNELS 3 Zrotation Yrotation Xrotation
				JOINT LeftAnkle
				{
					OFFSET 2.71775 -7.46697 0.00000
					CHANNELS 3 Zrotation Yrotation Xrotation
					JOINT LeftToe
					{
						OFFSET 0.18768 -0.51564 2.24737
						CHANNELS 3 Zrotation Yrotation Xrotation
						End Site
						{
							OFFSET 0.00000 -0.00000 1.15935
						}
					}
				}
			}
		}
	}
	JOINT RHipJoint
	{
		OFFSET 0 0 0
		CHANNELS 3 Zrotation Yrotation Xrotation
		JOINT RightHip
		{
			OFFSET -1.58830 -1.70879 0.84566
			CHANNELS 3 Zrotation Yrotation Xrotation
			JOINT RightKnee
			{
				OFFSET -2.25006 -6.18201 0.00000
				CHANNELS 3 Zrotation Yrotation Xrotation
				JOINT RightAnkle
				{
					OFFSET -2.72829 -7.49593 0.00000
					CHANNELS 3 Zrotation Yrotation Xrotation
					JOINT RightToe
					{
						OFFSET -0.21541 -0.59185 2.10643
						CHANNELS 3 Zrotation Yrotation Xrotation
						End Site
						{
							OFFSET -0.00000 -0.00000 1.09838
						}
					}
				}
			}
		}
	}
	JOINT lowerback
	{
		OFFSET 0 0 0
		CHANNELS 3 Zrotation Yrotation Xrotation
		JOINT Chest
		{
			OFFSET 0.03142 2.10496 -0.11038
			CHANNELS 3 Zrotation Yrotation Xrotation
			JOINT Chest2
			{
				OFFSET -0.01863 2.10897 -0.06956
				CHANNELS 3 Zrotation Yrotation Xrotation
				JOINT lowerneck
				{
					OFFSET 0 0 0
					CHANNELS 3 Zrotation Yrotation Xrotation
					JOINT Neck
					{
						OFFSET -0.02267 1.73238 0.00451
						CHANNELS 3 Zrotation Yrotation Xrotation
						JOINT Head
						{
							OFFSET -0.05808 1.54724 -0.61749
							CHANNELS 3 Zrotation Yrotation Xrotation
							End Site
							{
								OFFSET -0.01396 1.71468 -0.21082
							}
						}
					}
				}
				JOINT LeftCollar
				{
					OFFSET 0 0 0
					CHANNELS 3 Zrotation Yrotation Xrotation
					JOINT LeftShoulder
					{
						OFFSET 3.44898 0.50298 0.21920
CHANNELS 3 Zrotation Xrotation Yrotation
						JOINT LeftElbow
						{
OFFSET 0 -5.419170 -0.000000
CHANNELS 3 Zrotation Xrotation Yrotation
							JOINT LeftWrist
							{
OFFSET 0 -2.443730 0.000000
CHANNELS 3 Zrotation Xrotation Yrotation
								JOINT lhand
								{
									OFFSET 0 0 0
CHANNELS 3 Zrotation Xrotation Yrotation
									JOINT LFingers
									{
OFFSET 0 -0.727500 0.000000
CHANNELS 3 Zrotation Xrotation Yrotation
										End Site
										{
OFFSET 0 -0.586530 0.000000
										}
									}
								}
								JOINT LThumb
								{
OFFSET 0 0.000000 0.000000
CHANNELS 3 Zrotation Xrotation Yrotation
									End Site
									{
OFFSET 0 -0.595490 0.595490
									}
								}
							}
						}
					}
				}
				JOINT RightCollar
				{
					OFFSET 0 0 0
					CHANNELS 3 Zrotation Yrotation Xrotation
					JOINT RightShoulder
					{
						OFFSET -3.23015 0.55830 0.31051
CHANNELS 3 Zrotation Xrotation Yrotation
						JOINT RightElbow
						{
OFFSET 0 -5.589760 0.000140
CHANNELS 3 Zrotation Xrotation Yrotation
							JOINT RightWrist
							{
OFFSET 0 -2.480600 0.000000
CHANNELS 3 Zrotation Xrotation Yrotation
								JOINT rhand
								{
									OFFSET 0 0 0
CHANNELS 3 Zrotation Xrotation Yrotation
									JOINT RFingers
									{
OFFSET 0 -0.816010 0.000000
CHANNELS 3 Zrotation Xrotation Yrotation
										End Site
										{
OFFSET 0 -0.657890 0.000000
										}
									}
								}
								JOINT RThumb
								{
OFFSET 0 0.000000 0.000000
CHANNELS 3 Zrotation Xrotation Yrotation
									End Site
									{
OFFSET 0 -0.667930 0.667930
									}
								}
							}
						}
					}
				}
			}
		}
	}
}
MOTION
Frames: 7
Frame Time: 0.008333333333333333
-3.632100 16.128800 -35.010300 36.816700 85.366300 54.798500 0.000000 0.000000 0.000000 -19.638500 -14.415500 -26.898400 3.601300 11.610000 34.366000 1.342700 14.150200 -31.018000 3.743700 -11.811300 -35.067700 0.000000 0.000000 0.000000 -20.063800 28.089300 -32.915100 -4.555200 -12.864600 38.863800 -17.500900 26.432300 -82.723900 -10.318500 -17.585100 60.547600 -0.854300 -0.428400 -10.260400 0.706000 0.002100 -9.852600 1.197300 0.291600 -4.556900 -16.068100 -24.049400 2.003400 10.853400 -34.446000 18.671300 1.771400 -16.561300 10.293800 -0.000000 -0.000000 0.000000 42.885700 11.700300 18.931600 7.951900 -13.474800 0.940900 -5.788800 50.368600 -20.936500 0.000000 0.000000 0.000000 -7.125000 0.000000 0.000000 -32.685300 47.962600 2.658600 -0.000000 -0.000000 0.000000 -53.867800 -37.665300 6.886600 -14.612000 -23.602800 -3.068900 0.164000 -24.645700 -16.116900 0.000000 0.000000 0.000000 7.125000 0.000000 -0.000000 18.485600 14.402200 14.072600
-3.604409 16.108528 -34.929691 36.057529 84.843924 53.856759 0.000000 0.000000 0.000000 -19.768126 -14.033086 -26.853937 3.654610 11.685908 34.629886 1.221355 14.813954 -30.845950 4.061069 -12.241233 -36.590700 0.000000 0.000000 0.000000 -19.467911 24.887438 -33.573970 -4.565274 -12.876741 38.908999 -17.026021 23.395641 -81.293120 -10.355809 -17.605108 60.671055 -1.518283 -0.996902 -10.579867 1.552155 -0.730155 -9.344481 2.403464 -0.038086 -3.801557 -16.221424 -23.808608 0.784973 10.438351 -33.853893 18.457911 1.643708 -16.282275 10.276247 0.000000 0.000000 0.000000 43.268317 12.352944 21.255853 7.812353 -13.248188 0.908642 -5.663551 51.426784 -21.277343 0.000000 0.000000 0.000000 -7.125000 0.000000 0.000000 -32.772794 48.270496 2.941073 0.000000 0.000000 0.000000 -59.389619 -32.687062 14.958876 -18.825682 -29.189350 -4.951557 -6.206420 -36.859695 -10.331942 0.000000 0.000000 0.000000 7.125000 0.000000 0.000000 14.684149 19.752416 9.191080
-3.573477 16.104407 -34.847151 35.085889 84.267820 52.642929 0.000000 0.000000 0.000000 -19.928140 -13.592134 -26.713609 3.710518 11.764817 34.905127 1.045654 15.514088 -30.374181 4.302435 -12.541584 -37.692414 0.000000 0.000000 0.000000 -17.686228 17.347004 -35.955579 -4.635913 -12.961666 39.225210 -15.302931 15.630625 -76.220343 -10.359120 -17.606809 60.681942 -1.340677 -0.983960 -10.256967 1.407976 -0.741696 -9.334311 2.155221 -0.061390 -3.968981 -16.157828 -23.988711 0.721770 10.453930 -34.099725 18.316451 1.590432 -16.393268 10.259326 0.000000 0.000000 0.000000 45.242535 12.489807 22.507747 7.739174 -13.129153 0.891905 -5.894586 52.864300 -21.404763 0.000000 0.000000 0.000000 -7.125000 0.000000 0.000000 -33.045571 48.345425 3.038399 0.000000 0.000000 0.000000 -62.540079 -28.359774 16.525602 -20.531263 -31.276747 -5.804813 -9.823122 -40.439757 -6.789541 0.000000 0.000000 0.000000 7.125000 0.000000 0.000000 12.398900 23.126704 6.700068
-3.542647 16.093136 -34.757931 31.268971 84.034860 48.536343 0.000000 0.000000 0.000000 -19.577819 -13.025950 -26.606314 3.780200 11.861935 35.245347 0.962285 15.851941 -30.156568 4.386304 -12.651343 -38.086572 0.000000 0.000000 0.000000 -15.716671 11.955477 -37.624090 -4.701233 -13.039145 39.515382 -14.104455 10.388912 -72.732154 -10.351800 -17.602935 60.657740 -0.742924 -0.995908 -9.782376 1.471033 -0.800745 -9.399796 1.886806 -0.121242 -4.302793 -16.194636 -23.955770 0.811191 10.617302 -34.066443 18.011118 1.671051 -16.386612 10.167855 0.000000 0.000000 0.000000 47.020398 12.871511 23.303494 7.747944 -13.143479 0.893942 -6.103795 53.760263 -21.789634 0.000000 0.000000 0.000000 -7.125000 0.000000 0.000000 -33.452714 48.640688 3.354081 0.000000 0.000000 0.000000 -64.681487 -25.808220 15.076536 -19.928979 -30.549541 -5.498678 -11.454418 -39.138463 -5.729832 0.000000 0.000000 0.000000 7.125000 0.000000 0.000000 11.293312 24.141854 5.794665
-3.516359 16.097263 -34.667017 28.881468 83.612903 45.870012 0.000000 0.000000 0.000000 -19.400171 -12.841828 -26.308542 3.847689 11.954942 35.572741 1.057618 15.988567 -30.919234 4.110553 -12.305897 -36.823218 0.000000 0.000000 0.000000 -15.069889 13.012115 -37.128377 -4.758836 -13.106930 39.770194 -14.604637 13.948798 -74.120846 -10.450964 -17.655704 60.985088 -0.542117 -1.027556 -9.294752 1.607495 -0.857432 -9.461697 1.919247 -0.156003 -4.636014 -16.187874 -23.895664 0.882769 10.704430 -33.972656 17.714949 1.739633 -16.354678 10.052183 0.000000 0.000000 0.000000 48.647568 13.217151 22.813467 7.764525 -13.170453 0.897750 -6.207777 53.310327 -22.503825 0.000000 0.000000 0.000000 -7.125000 0.000000 0.000000 -33.973110 49.227610 3.959392 0.000000 0.000000 0.000000 -66.370999 -24.403633 11.598158 -18.055784 -28.220039 -4.579932 -12.618431 -36.079975 -5.316338 0.000000 0.000000 0.000000 7.125000 0.000000 0.000000 10.464614 24.534052 5.260574
-3.493589 16.086263 -34.556771 24.700428 83.069115 41.344056 0.000000 0.000000 0.000000 -18.956381 -12.911718 -25.851168 3.919768 12.052895 35.919160 1.305814 15.659207 -32.163313 3.438807 -11.373667 -33.550690 0.000000 0.000000 0.000000 -11.758199 4.150482 -40.623745 -4.846407 -13.208612 40.154688 -12.384559 3.151018 -68.065267 -10.319499 -17.585666 60.551054 -0.130805 -1.052533 -8.835289 1.688465 -0.927439 -9.366571 1.774745 -0.219900 -4.790033 -16.394266 -24.007899 0.949471 11.051120 -34.196615 17.533966 1.810170 -16.450201 10.111799 0.000000 0.000000 0.000000 50.537390 13.606078 21.608081 7.796320 -13.222083 0.904996 -6.444217 51.795764 -23.228784 0.000000 0.000000 0.000000 -7.125000 0.000000 0.000000 -34.629440 49.799464 4.590006 0.000000 0.000000 0.000000 -67.394686 -24.391603 4.731170 -15.064031 -24.233731 -3.253181 -12.626501 -29.558082 -6.142114 0.000000 0.000000 0.000000 7.125000 0.000000 0.000000 10.404429 23.701761 5.431275
-3.467187 16.100895 -34.443289 20.857825 82.451158 37.031197 0.000000 0.000000 0.000000 -18.587375 -12.569761 -25.302572 3.970454 12.120924 36.161286 1.157560 16.402079 -31.961320 3.447494 -11.384651 -33.590587 0.000000 0.000000 0.000000 -12.175834 10.756562 -38.297470 -4.947319 -13.323905 40.594045 -14.259350 11.159494 -73.181838 -10.540044 -17.702575 61.278643 0.001613 -1.259183 -8.441636 2.159271 -1.222610 -9.107374 2.181731 -0.372717 -4.714477 -16.667598 -23.801236 0.444044 10.955318 -33.810582 17.438859 1.820617 -16.274034 10.134850 0.000000 0.000000 0.000000 51.611316 14.155791 22.351363 7.842464 -13.297190 0.915581 -6.743355 51.832208 -23.517805 0.000000 0.000000 0.000000 -7.125000 0.000000 0.000000 -35.074472 49.993878 4.848346 0.000000 0.000000 0.000000 -68.901930 -25.649907 -7.438066 -11.577600 -19.146319 -1.978561 -11.904143 -17.432350 -8.962528 0.000000 0.000000 0.000000 7.125000 0.000000 0.000000 10.771665 20.892715 6.334271
